<svg xmlns="http://www.w3.org/2000/svg" viewBox="0 0 48 48" fill="none">
  <!-- AlphaFold: DeepMind blue/teal rainbow ribbon -->
  <defs>
    <linearGradient id="afg" x1="0%" y1="0%" x2="100%" y2="100%">
      <stop offset="0%"   stop-color="#4285f4"/>
      <stop offset="33%"  stop-color="#0f9d58"/>
      <stop offset="66%"  stop-color="#f4b400"/>
      <stop offset="100%" stop-color="#db4437"/>
    </linearGradient>
  </defs>
  <!-- Rainbow protein ribbon -->
  <path d="M8 38 C10 34 12 30 16 28 C20 26 22 28 24 26 C26 24 26 20 28 18 C30 16 34 16 36 14 C38 12 40 10 40 10" stroke="url(#afg)" stroke-width="4" fill="none" stroke-linecap="round" stroke-linejoin="round"/>
  <!-- Confidence score circles -->
  <circle cx="12" cy="34" r="4" fill="#4285f4" opacity="0.85"/>
  <circle cx="20" cy="27" r="4" fill="#0f9d58" opacity="0.85"/>
  <circle cx="28" cy="20" r="4" fill="#f4b400" opacity="0.85"/>
  <circle cx="38" cy="12" r="4" fill="#db4437" opacity="0.85"/>
  <!-- pLDDT label hint -->
  <circle cx="12" cy="34" r="1.5" fill="white" opacity="0.7"/>
  <circle cx="20" cy="27" r="1.5" fill="white" opacity="0.7"/>
  <circle cx="28" cy="20" r="1.5" fill="white" opacity="0.7"/>
  <circle cx="38" cy="12" r="1.5" fill="white" opacity="0.7"/>
  <!-- Alpha helix at start -->
  <path d="M6 42 C7 40 9 40 9 42 C9 44 7 44 7 46" stroke="#4285f4" stroke-width="1.5" fill="none" stroke-linecap="round"/>
</svg>
