<svg xmlns="http://www.w3.org/2000/svg" viewBox="0 0 48 48" fill="none">
  <!-- ChimeraX: UCSF blue/gold ribbon structure -->
  <!-- Ribbon helix coil -->
  <path d="M10 36 C12 32 16 32 16 28 C16 24 12 24 12 20 C12 16 16 16 16 12" stroke="#003366" stroke-width="4" fill="none" stroke-linecap="round" stroke-linejoin="round"/>
  <!-- Beta sheet arrows gold -->
  <rect x="22" y="11" width="12" height="5" rx="1.5" fill="#c8871a"/>
  <polygon points="34,11 40,13.5 34,16" fill="#c8871a"/>
  <rect x="22" y="21.5" width="12" height="5" rx="1.5" fill="#c8871a"/>
  <polygon points="34,21.5 40,24 34,26.5" fill="#c8871a"/>
  <rect x="22" y="32" width="12" height="5" rx="1.5" fill="#c8871a"/>
  <polygon points="34,32 40,34.5 34,37" fill="#c8871a"/>
  <!-- Loop connectors -->
  <path d="M16 28 Q19 28 22 24" stroke="#6699cc" stroke-width="1.5" fill="none" stroke-linecap="round"/>
  <path d="M16 20 Q19 20 22 21.5" stroke="#6699cc" stroke-width="1.5" fill="none" stroke-linecap="round"/>
</svg>
