<svg xmlns="http://www.w3.org/2000/svg" viewBox="0 0 48 48" fill="none">
  <!-- CWLTool: blue, CWL gear/spec style -->
  <!-- Outer gear ring -->
  <circle cx="24" cy="24" r="16" stroke="#1d4ed8" stroke-width="2" fill="none" stroke-dasharray="4 2"/>
  <!-- Inner circle -->
  <circle cx="24" cy="24" r="9" fill="#1d4ed8" opacity="0.15" stroke="#1d4ed8" stroke-width="1.5"/>
  <circle cx="24" cy="24" r="5" fill="#1d4ed8"/>
  <!-- CWL teeth -->
  <rect x="22" y="6"  width="4" height="5" rx="1" fill="#2563eb"/>
  <rect x="22" y="37" width="4" height="5" rx="1" fill="#2563eb"/>
  <rect x="6"  y="22" width="5" height="4" rx="1" fill="#2563eb"/>
  <rect x="37" y="22" width="5" height="4" rx="1" fill="#2563eb"/>
  <rect x="11" y="11" width="4" height="4" rx="1" fill="#3b82f6" transform="rotate(45 13 13)"/>
  <rect x="33" y="11" width="4" height="4" rx="1" fill="#3b82f6" transform="rotate(45 35 13)"/>
  <rect x="11" y="33" width="4" height="4" rx="1" fill="#3b82f6" transform="rotate(45 13 35)"/>
  <rect x="33" y="33" width="4" height="4" rx="1" fill="#3b82f6" transform="rotate(45 35 35)"/>
  <!-- CWL text hint -->
  <circle cx="24" cy="24" r="2" fill="#bfdbfe"/>
</svg>
