<svg xmlns="http://www.w3.org/2000/svg" viewBox="0 0 48 48" fill="none">
  <!-- Galaxy: spiral galaxy / analysis portal -->
  <defs>
    <linearGradient id="gg" x1="0%" y1="0%" x2="100%" y2="100%">
      <stop offset="0%" stop-color="#0ea5e9"/>
      <stop offset="100%" stop-color="#6366f1"/>
    </linearGradient>
  </defs>
  <circle cx="24" cy="24" r="5" fill="url(#gg)"/>
  <circle cx="22" cy="22" r="1.5" fill="#e0f2fe" opacity="0.8"/>
  <!-- Spiral arms -->
  <path d="M24 19 C28 16 34 16 36 20 C38 24 36 30 30 32 C24 34 18 30 16 26" stroke="url(#gg)" stroke-width="2.5" fill="none" stroke-linecap="round"/>
  <path d="M24 29 C20 32 14 32 12 28 C10 24 12 18 18 16 C24 14 30 18 32 22" stroke="#6366f1" stroke-width="2" fill="none" stroke-linecap="round" opacity="0.6"/>
  <!-- Stars/tools -->
  <circle cx="36" cy="20" r="2.5" fill="#0ea5e9"/>
  <circle cx="30" cy="33" r="2.5" fill="#6366f1"/>
  <circle cx="12" cy="28" r="2.5" fill="#0ea5e9"/>
  <circle cx="18" cy="15" r="2.5" fill="#6366f1"/>
  <!-- Outer stars -->
  <circle cx="40" cy="10" r="1.5" fill="#bae6fd" opacity="0.8"/>
  <circle cx="8"  cy="38" r="1.5" fill="#c7d2fe" opacity="0.8"/>
  <circle cx="42" cy="36" r="1"   fill="#bae6fd" opacity="0.6"/>
  <circle cx="6"  cy="12" r="1"   fill="#c7d2fe" opacity="0.6"/>
</svg>
