<?xml version="1.0" encoding="UTF-8" standalone="no"?>
<!-- Created with Inkscape (http://www.inkscape.org/) -->

<svg
   xmlns:dc="http://purl.org/dc/elements/1.1/"
   xmlns:cc="http://creativecommons.org/ns#"
   xmlns:rdf="http://www.w3.org/1999/02/22-rdf-syntax-ns#"
   xmlns:svg="http://www.w3.org/2000/svg"
   xmlns="http://www.w3.org/2000/svg"
   xmlns:sodipodi="http://sodipodi.sourceforge.net/DTD/sodipodi-0.dtd"
   xmlns:inkscape="http://www.inkscape.org/namespaces/inkscape"
   id="svg3355"
   version="1.1"
   inkscape:version="0.91 r13725"
   xml:space="preserve"
   width="179"
   height="58"
   viewBox="5 34 168 20"
   sodipodi:docname="sbgrid-logo.svg"><metadata
     id="metadata3361"><rdf:RDF><cc:Work
         rdf:about=""><dc:format>image/svg+xml</dc:format><dc:type
           rdf:resource="http://purl.org/dc/dcmitype/StillImage" /><dc:title></dc:title></cc:Work></rdf:RDF></metadata><defs
     id="defs3359" /><sodipodi:namedview
     pagecolor="#ffffff"
     bordercolor="#666666"
     borderopacity="1"
     objecttolerance="10"
     gridtolerance="10"
     guidetolerance="10"
     inkscape:pageopacity="0"
     inkscape:pageshadow="2"
     inkscape:window-width="1744"
     inkscape:window-height="700"
     id="namedview3357"
     showgrid="false"
     inkscape:zoom="6.9277778"
     inkscape:cx="44.478954"
     inkscape:cy="45"
     inkscape:window-x="0"
     inkscape:window-y="22"
     inkscape:window-maximized="0"
     inkscape:current-layer="g3363" /><g
     id="g3363"
     inkscape:groupmode="layer"
     inkscape:label="ink_ext_XXXXXX"
     transform="matrix(1.25,0,0,-1.25,0,90)"><g
       id="g3365"
       transform="scale(0.1,0.1)"><path
         d="m 42.6133,584.527 363.2577,0 c 0,-67.14 2.582,-135.261 -9.93,-201.281 -11.308,-59.621 -42.339,-112.219 -83.238,-156.558 -26.383,-28.614 -56.851,-53.133 -89.269,-74.52 -53.774,33.68 -99.672,78.727 -132.7035,133.008 -16.9571,27.922 -31.1289,57.91 -39.4102,89.59 -8.8164,33.679 -8.5586,68.16 -8.5586,102.761 0,34.481 -0.0898,67.989 -0.0898,102.391"
         style="fill:#b01f2e;fill-opacity:1;fill-rule:evenodd;stroke:none"
         id="path3367"
         inkscape:connector-curvature="0" /><path
         d="m 45.6367,581.52 0.0196,-1.571 c 0,-17.211 0.0195,-34.191 0.0585,-51.172 0.0196,-16.988 0.0391,-34.007 0.0391,-51.25 l 0,-2.718 c 0,-32.871 0,-66.871 8.4609,-99.282 7.5704,-28.968 20.3594,-57.988 39.0899,-88.797 31.5193,-51.82 76.4613,-97.089 130.0583,-130.98 34.422,22.84 62.91,46.719 87.133,73 44.348,48.059 72.09,100.27 82.5,155.059 10.629,56.082 10.309,114.66 9.969,171.25 -0.039,8.699 -0.078,17.621 -0.102,26.461 l -357.2263,0 z m 177.8083,-432.93 -1.629,1.019 c -55.089,34.539 -101.339,80.86 -133.6129,133.989 -19.0586,31.3 -32.0468,60.89 -39.789,90.39 -8.6993,33.18 -8.6797,67.551 -8.6797,100.821 l 0,2.718 c 0,17.243 -0.0196,34.262 -0.0508,51.25 -0.0078,16.981 -0.0273,33.961 -0.0273,51.141 l -0.0821,7.59 369.3008,0 0,-2.981 c 0,-9.797 0.059,-19.777 0.109,-29.41 0.321,-56.906 0.629,-115.758 -10.089,-172.406 -10.61,-55.961 -38.86,-109.133 -83.969,-158.043 -24.93,-27.051 -54.34,-51.578 -89.852,-75.02"
         style="fill:#231f20;fill-opacity:1;fill-rule:nonzero;stroke:none"
         id="path3369"
         inkscape:connector-curvature="0" /><path
         d="m 211.957,498.984 c -1.918,0 -3.48,-1.57 -3.48,-3.48 0,-1.93 1.562,-3.481 3.48,-3.481 1.922,0 3.481,1.551 3.481,3.481 0,1.91 -1.559,3.48 -3.481,3.48"
         style="fill:#ffffff;fill-opacity:1;fill-rule:nonzero;stroke:none"
         id="path3371"
         inkscape:connector-curvature="0" /><path
         d="m 100.906,498.984 c -1.8982,0 -3.4685,-1.55 -3.4685,-3.48 0,-1.93 1.5703,-3.481 3.4685,-3.481 1.934,0 3.481,1.551 3.481,3.481 0,1.93 -1.547,3.48 -3.481,3.48"
         style="fill:#ffffff;fill-opacity:1;fill-rule:nonzero;stroke:none"
         id="path3373"
         inkscape:connector-curvature="0" /><path
         d="m 335.727,498.984 c -1.911,0 -3.489,-1.57 -3.489,-3.48 0,-1.93 1.578,-3.481 3.489,-3.481 1.902,0 3.492,1.551 3.492,3.481 0,1.91 -1.59,3.48 -3.492,3.48"
         style="fill:#ffffff;fill-opacity:1;fill-rule:nonzero;stroke:none"
         id="path3375"
         inkscape:connector-curvature="0" /><path
         d="m 217.672,497.992 28.719,0 0,63.11 c -0.7,0.652 -4.399,4.031 -5.039,4.589 -21.102,1.051 -26.743,-2.57 -27.852,-3.5 l 0,-60.679 c 1.859,-0.481 3.41,-1.77 4.172,-3.52"
         style="fill:#ffffff;fill-opacity:1;fill-rule:nonzero;stroke:none"
         id="path3377"
         inkscape:connector-curvature="0" /><path
         d="m 177.68,498.266 28.73,0 c 0.813,1.632 2.313,2.89 4.18,3.32 l 0,60.859 c -1.098,0.961 -6.777,4.563 -27.867,3.5 -0.602,-0.539 -4.321,-3.929 -5.043,-4.566"
         style="fill:#ffffff;fill-opacity:1;fill-rule:nonzero;stroke:none"
         id="path3379"
         inkscape:connector-curvature="0" /><path
         d="m 148.895,511.684 -9.36,0 0,0.441 -0.051,0 0,37.09 c 0,0 8.34,0.219 9.161,0.238 0.992,0.621 1.179,1.473 1.179,1.82 l 0,0.114 c 0,1.758 -0.84,2.179 -1.027,2.238 l -9.313,0 0,8.781 c 0,0.821 -0.187,1.367 -0.546,1.688 -0.571,0.422 -1.583,0.32 -1.883,0.242 l -0.16,-0.031 -0.95,0 2.153,-1.969 0,-67.109 -30.981,0 c -0.031,-0.692 -0.179,-1.411 -0.422,-2.043 l 29.981,0 c 1.101,0.019 1.879,0.339 2.351,0.871 0.688,0.898 0.481,2.308 0.457,2.57 l 0,9.988 0.024,0 -0.024,0.684 c 0,0 8.422,0.168 9.25,0.219 0.993,0.609 1.153,1.468 1.153,1.828 l 0,0.07 c 0,1.789 -0.789,2.191 -0.992,2.27"
         style="fill:#ffffff;fill-opacity:1;fill-rule:nonzero;stroke:none"
         id="path3381"
         inkscape:connector-curvature="0" /><path
         d="m 205.73,495.508 -30.796,0 0,67.07 2.179,1.981 -0.972,0 -0.161,0.039 c -0.296,0.082 -1.308,0.199 -1.867,-0.258 -0.359,-0.281 -0.562,-0.863 -0.562,-1.672 l 0,-8.789 -9.379,0 c -0.231,-0.109 -0.949,-0.59 -0.949,-2.359 l 0,-0.082 c 0,-0.239 0.14,-1.11 1.179,-1.731 0.782,-0.027 9.149,-0.25 9.149,-0.25 l 0,-37.059 -0.059,0 0,-0.48 -9.379,0 c -0.25,-0.121 -0.972,-0.59 -0.972,-2.359 l 0,-0.063 c 0,-0.258 0.16,-1.09 1.179,-1.75 0.813,-0.008 9.223,-0.199 9.223,-0.199 l -0.02,-0.688 0.028,0 -0.028,-10.211 c 0,0 -0.23,-1.441 0.528,-2.332 0.422,-0.546 1.222,-0.839 2.242,-0.878 l 29.828,0 c -0.238,0.628 -0.391,1.332 -0.391,2.07"
         style="fill:#ffffff;fill-opacity:1;fill-rule:nonzero;stroke:none"
         id="path3383"
         inkscape:connector-curvature="0" /><path
         d="m 106.594,497.992 28.738,0 0,63.11 c -0.719,0.652 -4.422,4.031 -5.031,4.589 -21.09,1.051 -26.77,-2.57 -27.84,-3.5 l 0,-60.679 c 1.852,-0.481 3.402,-1.77 4.133,-3.52"
         style="fill:#ffffff;fill-opacity:1;fill-rule:nonzero;stroke:none"
         id="path3385"
         inkscape:connector-curvature="0" /><path
         d="m 94.6953,495.508 -30.7969,0 0,67.07 2.1602,1.981 -0.9727,0 -0.1406,0.039 c -0.3086,0.082 -1.3398,0.199 -1.8984,-0.258 -0.3711,-0.281 -0.5196,-0.863 -0.5196,-1.672 l 0,-8.789 -9.3789,0 c -0.2812,-0.109 -0.9804,-0.59 -0.9804,-2.359 l 0,-0.082 c 0,-0.239 0.1484,-1.11 1.1797,-1.731 0.8086,-0.027 9.1796,-0.25 9.1796,-0.25 l 0,-37.059 -0.0898,0 0,-0.48 -9.3789,0 c -0.25,-0.121 -0.9727,-0.59 -0.9727,-2.359 l 0,-0.063 c 0,-0.238 0.1407,-1.09 1.1524,-1.75 0.8398,-0.008 9.2695,-0.199 9.2695,-0.199 l -0.0195,-0.688 0.039,0 -0.039,-10.211 c 0,0 -0.2227,-1.441 0.5,-2.332 0.4297,-0.546 1.2305,-0.839 2.2773,-0.878 l 29.8008,0 c -0.2578,0.628 -0.3711,1.332 -0.3711,2.07"
         style="fill:#ffffff;fill-opacity:1;fill-rule:nonzero;stroke:none"
         id="path3387"
         inkscape:connector-curvature="0" /><path
         d="m 66.6602,498.266 28.6914,0 c 0.8086,1.632 2.3476,2.89 4.1679,3.32 l 0,60.859 c -1.0703,0.961 -6.7578,4.563 -27.8398,3.5 -0.6094,-0.539 -4.3086,-3.929 -5.0195,-4.566"
         style="fill:#ffffff;fill-opacity:1;fill-rule:nonzero;stroke:none"
         id="path3389"
         inkscape:connector-curvature="0" /><path
         d="m 395.238,511.684 -11.679,0 0,0.441 -0.039,0 0,37.09 c 0,0 10.39,0.219 11.378,0.238 1.25,0.621 1.469,1.453 1.469,1.82 l 0,0.082 c 0,1.809 -1.008,2.211 -1.25,2.27 l -11.597,0 0,8.781 c 0,0.821 -0.219,1.367 -0.7,1.688 -0.672,0.422 -1.953,0.32 -2.34,0.242 l -0.191,-0.031 -1.18,0 2.7,-1.969 0,-67.109 -39.86,0 c -0.039,-0.692 -0.199,-1.411 -0.461,-2.043 l 38.532,0 c 1.371,0.019 2.339,0.339 2.878,0.871 0.93,0.898 0.641,2.308 0.622,2.57 l 0,9.988 0.019,0 0,0.684 c 0,0 10.449,0.168 11.481,0.219 1.238,0.609 1.449,1.468 1.449,1.828 l 0,0.07 c -0.02,1.789 -1.008,2.191 -1.231,2.27"
         style="fill:#ffffff;fill-opacity:1;fill-rule:nonzero;stroke:none"
         id="path3391"
         inkscape:connector-curvature="0" /><path
         d="m 329.488,495.508 -39.961,0 0,67.07 2.711,2 -1.211,0 -0.179,0.02 c -0.403,0.082 -1.672,0.199 -2.352,-0.258 -0.461,-0.281 -0.687,-0.863 -0.687,-1.672 l 0,-8.789 -11.672,0 c -0.289,-0.109 -1.168,-0.59 -1.168,-2.359 l 0,-0.051 c 0,-0.27 0.179,-1.141 1.476,-1.762 0.993,-0.027 11.364,-0.25 11.364,-0.25 l 0,-37.059 -0.071,0 0,-0.48 -11.679,0 c -0.293,-0.121 -1.211,-0.57 -1.211,-2.359 l 0,-0.051 c 0,-0.27 0.218,-1.102 1.468,-1.762 1.02,-0.008 11.493,-0.199 11.493,-0.199 l -0.024,-0.688 0.024,0 -0.024,-10.211 c 0,0 -0.277,-1.421 0.641,-2.332 0.531,-0.546 1.519,-0.839 2.812,-0.878 l 38.629,0 c -0.219,0.628 -0.379,1.332 -0.379,2.07"
         style="fill:#ffffff;fill-opacity:1;fill-rule:nonzero;stroke:none"
         id="path3393"
         inkscape:connector-curvature="0" /><path
         d="m 292.953,498.266 37.223,0 c 0.719,1.5 2.058,2.652 3.679,3.14 l 0,61.039 c -1.339,0.961 -8.41,4.563 -34.66,3.5 -0.761,-0.539 -5.34,-3.918 -6.242,-4.566"
         style="fill:#ffffff;fill-opacity:1;fill-rule:nonzero;stroke:none"
         id="path3395"
         inkscape:connector-curvature="0" /><path
         d="m 341.438,497.992 36.949,0 0,63.11 c -0.903,0.652 -5.5,4.031 -6.282,4.589 -26.218,1.051 -33.269,-2.57 -34.628,-3.488 l 0,-60.75 c 1.769,-0.519 3.218,-1.789 3.961,-3.461"
         style="fill:#ffffff;fill-opacity:1;fill-rule:nonzero;stroke:none"
         id="path3397"
         inkscape:connector-curvature="0" /><path
         d="m 259.934,511.684 -9.383,0 0,0.441 -0.047,0 0,37.07 c 0,0 8.387,0.239 9.187,0.258 0.993,0.621 1.192,1.473 1.192,1.82 l -0.02,0.114 c 0,1.758 -0.82,2.179 -0.992,2.238 l -9.367,0 0,8.781 c 0,0.821 -0.152,1.367 -0.531,1.688 -0.539,0.422 -1.563,0.32 -1.871,0.242 l -0.161,-0.031 -0.968,0 2.168,-1.969 0,-67.109 -30.981,0 c -0.039,-0.692 -0.148,-1.411 -0.43,-2.043 l 29.973,0 c 1.117,0.019 1.891,0.339 2.34,0.871 0.75,0.898 0.508,2.308 0.461,2.57 l 0,9.988 0.047,0 -0.02,0.684 c 0,0 8.422,0.168 9.231,0.219 1,0.609 1.179,1.468 1.179,1.808 l 0,0.09 c 0,1.789 -0.82,2.191 -1.007,2.27"
         style="fill:#ffffff;fill-opacity:1;fill-rule:nonzero;stroke:none"
         id="path3399"
         inkscape:connector-curvature="0" /><path
         d="m 40.3398,455.059 365.809,0 0,24 -365.809,0 0,-24 z"
         style="fill:#231f20;fill-opacity:1;fill-rule:nonzero;stroke:none"
         id="path3401"
         inkscape:connector-curvature="0" /><path
         d="m 45.6484,458.512 38.8125,0 0,16.4375 -38.8125,0 0,-16.4375 z"
         style="fill:#ffffff;fill-opacity:1;fill-rule:evenodd;stroke:none"
         id="path3403"
         inkscape:connector-curvature="0" /><path
         d="m 46.4297,459.281 37.2617,0 0,14.867 -37.2617,0 0,-14.867 z m 38.8203,-1.519 -40.3984,0 0,17.929 40.3984,0"
         style="fill:#231f20;fill-opacity:1;fill-rule:nonzero;stroke:none"
         id="path3405"
         inkscape:connector-curvature="0" /><path
         d="m 132.23,458.512 41.7891,0 0,16.4375 -41.7891,0 0,-16.4375 z"
         style="fill:#ffffff;fill-opacity:1;fill-rule:evenodd;stroke:none"
         id="path3407"
         inkscape:connector-curvature="0" /><path
         d="m 132.969,459.281 40.242,0 0,14.867 -40.242,0 0,-14.867 z m 41.82,-1.519 -43.328,0 0,17.929 43.328,0"
         style="fill:#231f20;fill-opacity:1;fill-rule:nonzero;stroke:none"
         id="path3409"
         inkscape:connector-curvature="0" /><path
         d="m 223.25,458.512 41.7813,0 0,16.4375 -41.7813,0 0,-16.4375 z"
         style="fill:#ffffff;fill-opacity:1;fill-rule:evenodd;stroke:none"
         id="path3411"
         inkscape:connector-curvature="0" /><path
         d="m 224.039,459.281 40.231,0 0,14.867 -40.231,0 0,-14.867 z m 41.789,-1.519 -43.359,0 0,17.929 43.359,0"
         style="fill:#231f20;fill-opacity:1;fill-rule:nonzero;stroke:none"
         id="path3413"
         inkscape:connector-curvature="0" /><path
         d="m 314.289,458.512 41.8125,0 0,16.4375 -41.8125,0 0,-16.4375 z"
         style="fill:#ffffff;fill-opacity:1;fill-rule:evenodd;stroke:none"
         id="path3415"
         inkscape:connector-curvature="0" /><path
         d="m 315.059,459.281 40.23,0 0,14.867 -40.23,0 0,-14.867 z m 41.793,-1.519 -43.332,0 0,17.929 43.332,0"
         style="fill:#231f20;fill-opacity:1;fill-rule:nonzero;stroke:none"
         id="path3417"
         inkscape:connector-curvature="0" /><path
         d="m 100.953,563.125 c 0,0 -19.2694,8.5 -30.0624,2.98 l 0.461,-61.531 c 0,0 -0.2383,-4.14 18.1406,-2.289 l 9.4101,-2.07 6.1997,0.699 20.878,0.922 c 0,0 8.293,-2.992 4.614,23.418 l 0,41.769 c 0,0 -19.274,2.973 -29.641,-3.898"
         style="fill:#ffffff;fill-opacity:1;fill-rule:nonzero;stroke:none"
         id="path3419"
         inkscape:connector-curvature="0" /><path
         d="m 97.4375,495.508 c 0,1.922 1.5703,3.48 3.4685,3.48 1.942,0 3.481,-1.558 3.481,-3.48 0,-1.93 -1.539,-3.481 -3.481,-3.481 -1.8982,0 -3.4685,1.551 -3.4685,3.481 m -2.7422,0 c 0,-3.442 2.7735,-6.238 6.2107,-6.238 3.422,0 6.242,2.796 6.242,6.238 0,3.441 -2.82,6.219 -6.242,6.219 -3.4372,0 -6.2107,-2.778 -6.2107,-6.219"
         style="fill:#000000;fill-opacity:1;fill-rule:nonzero;stroke:none"
         id="path3421"
         inkscape:connector-curvature="0" /><path
         d="m 71.0703,568.688 -0.5195,-0.02 -6.6524,-6.09 0,-67.07 32.8789,0 0,2.758 -30.1171,0 0,63.113 c 0.707,0.637 4.4101,4.027 5.0273,4.566 21.0703,1.063 26.7617,-2.539 27.832,-3.5 l 0,-62.09 2.7575,0 0,63.051 -0.187,0.332 c -0.402,0.641 -4.6408,6.34 -31.0197,4.95"
         style="fill:#000000;fill-opacity:1;fill-rule:nonzero;stroke:none"
         id="path3423"
         inkscape:connector-curvature="0" /><path
         d="m 69.7422,567.313 0,-61.629 c 0,-0.141 -0.043,-1.852 1.3281,-3.282 1.0703,-1.148 2.7188,-1.757 4.8594,-1.757 5.2109,0.269 19.4726,0.468 23.75,-1.403 l 1.1013,2.5 c -5.7302,2.551 -24.1287,1.723 -24.8982,1.672 -1.2812,0 -2.25,0.301 -2.8125,0.879 -0.5703,0.57 -0.5703,1.289 -0.5703,1.352 l 0,61.668"
         style="fill:#000000;fill-opacity:1;fill-rule:nonzero;stroke:none"
         id="path3425"
         inkscape:connector-curvature="0" /><path
         d="m 59.7422,506.855 0,-9.98 c -0.0195,-0.02 -0.4219,-2.398 1.0976,-4.289 0.9727,-1.191 2.4297,-1.84 4.3829,-1.91 l 32.5976,0 0,2.769 -32.5508,0 c -1.0586,0.039 -1.8476,0.321 -2.2773,0.871 -0.7227,0.887 -0.5117,2.309 -0.5117,2.309 l 0.039,10.23"
         style="fill:#000000;fill-opacity:1;fill-rule:nonzero;stroke:none"
         id="path3427"
         inkscape:connector-curvature="0" /><path
         d="m 61.3516,566.504 c -0.7188,-0.559 -1.6094,-1.691 -1.6094,-3.828 l 0,-6.024 -7.0274,0 -0.1835,-0.066 c -0.129,-0.012 -3.0977,-0.813 -3.0977,-4.941 0,-0.082 -0.0195,-0.211 -0.0195,-0.321 0,-1.07 0.5781,-3.058 2.8203,-4.191 l 0.2969,-0.16 c 0,0 5.3515,-0.137 7.2109,-0.207 l 0,-34.371 2.7812,0 0,37.058 c 0,0 -8.3711,0.223 -9.1718,0.25 -1.0391,0.633 -1.1797,1.5 -1.1797,1.731 l 0,0.082 c 0,1.777 0.6992,2.257 0.9726,2.367 l 9.3789,0 0,8.793 c 0,0.808 0.1602,1.387 0.5196,1.66 0.5703,0.457 1.5898,0.34 1.9101,0.258 l 0.1289,-0.039 4.4805,-0.02 0,2.778 -4.2891,0 0.3282,-0.04 c -0.25,0.063 -2.5391,0.563 -4.25,-0.769"
         style="fill:#000000;fill-opacity:1;fill-rule:nonzero;stroke:none"
         id="path3429"
         inkscape:connector-curvature="0" /><path
         d="m 52.7891,514.703 -0.1797,0 -0.1602,-0.062 c -0.1328,-0.039 -3.1015,-0.828 -3.1015,-4.918 -0.1289,-1.032 0.3398,-3.313 2.8086,-4.563 l 0.2734,-0.137 10,-0.25 0.0781,2.778 c 0,0 -8.4414,0.179 -9.2695,0.203 -1.0117,0.656 -1.1485,1.508 -1.1485,1.738 l 0,0.059 c 0,1.769 0.7188,2.242 0.9688,2.371 l 9.3789,0 0,2.781"
         style="fill:#000000;fill-opacity:1;fill-rule:nonzero;stroke:none"
         id="path3431"
         inkscape:connector-curvature="0" /><path
         d="m 99.8984,563.461 -0.2031,-0.34 0,-63.019 2.7617,0 0,62.089 c 1.078,0.93 6.762,4.563 27.84,3.5 0.609,-0.558 4.308,-3.937 5.031,-4.589 l 0,-63.11 -30.133,0 0,-2.762 32.903,0 0,67.102 -6.66,6.078 -0.5,0.024 c -26.391,1.386 -30.641,-4.313 -31.0396,-4.973"
         style="fill:#000000;fill-opacity:1;fill-rule:nonzero;stroke:none"
         id="path3433"
         inkscape:connector-curvature="0" /><path
         d="m 129.508,567.063 0,-61.68 c 0,-0.043 0,-0.774 -0.602,-1.371 -0.539,-0.551 -1.527,-0.852 -2.859,-0.852 -0.711,0.039 -19.109,0.852 -24.828,-1.648 l 1.078,-2.551 c 4.289,1.898 18.551,1.691 23.672,1.43 2.238,0 3.879,0.609 4.976,1.761 1.34,1.43 1.321,3.141 1.321,3.309 l 0,61.602"
         style="fill:#000000;fill-opacity:1;fill-rule:nonzero;stroke:none"
         id="path3435"
         inkscape:connector-curvature="0" /><path
         d="m 139.488,506.617 0,-10 c 0.008,-0.25 0.231,-1.672 -0.461,-2.562 -0.468,-0.528 -1.25,-0.848 -2.351,-0.867 l -32.508,0 0,-2.774 32.539,0 c 2,0.094 3.461,0.723 4.449,1.934 1.5,1.867 1.102,4.257 1.051,4.527 l 0.031,9.742"
         style="fill:#000000;fill-opacity:1;fill-rule:nonzero;stroke:none"
         id="path3437"
         inkscape:connector-curvature="0" /><path
         d="m 136.383,567.02 0.32,0.043 -4.281,0 0,-2.762 4.469,0 0.16,0.031 c 0.312,0.078 1.32,0.18 1.89,-0.242 0.36,-0.32 0.551,-0.86 0.551,-1.68 l 0,-8.777 9.309,0 c 0.191,-0.07 1.031,-0.492 1.031,-2.242 l 0,-0.11 c 0,-0.359 -0.199,-1.199 -1.191,-1.832 -0.821,-0.019 -9.149,-0.238 -9.149,-0.238 l 0,-37.09 2.738,0 0,34.391 c 1.883,0.058 7.243,0.199 7.243,0.199 l 0.269,0.16 c 2.262,1.141 2.809,3.078 2.809,4.309 l 0,0.363 c 0,3.977 -2.981,4.77 -3.078,4.809 l -0.192,0.019 -7.051,0 0,6.039 c 0,2.121 -0.867,3.281 -1.597,3.852 -1.711,1.34 -3.992,0.82 -4.25,0.758"
         style="fill:#000000;fill-opacity:1;fill-rule:nonzero;stroke:none"
         id="path3439"
         inkscape:connector-curvature="0" /><path
         d="m 149.199,514.441 -9.66,0 0,-2.757 9.359,0 c 0.192,-0.082 0.993,-0.481 0.993,-2.25 l 0,-0.09 c 0,-0.36 -0.161,-1.223 -1.153,-1.832 -0.828,-0.047 -9.25,-0.219 -9.25,-0.219 l 0.071,-2.762 9.98,0.211 0.289,0.18 c 2.473,1.262 2.922,3.519 2.813,4.672 0.019,3.98 -2.961,4.75 -3.102,4.789 l -0.16,0.058"
         style="fill:#000000;fill-opacity:1;fill-rule:nonzero;stroke:none"
         id="path3441"
         inkscape:connector-curvature="0" /><path
         d="m 76.4766,544.543 c -0.7227,2.156 -1.2813,2.566 -2.3828,2.969 -0.4883,0.129 -0.9805,0.129 -1.25,0.129 -0.2891,0 -0.3594,0.14 -0.3594,0.371 0,0.289 0.3203,0.347 0.8125,0.347 1.6797,0 3.4765,-0.117 4.5664,-0.117 0.7734,0 2.3008,0.117 3.8633,0.117 0.3984,0 0.7382,-0.089 0.7382,-0.347 0,-0.27 -0.1796,-0.371 -0.4882,-0.371 -0.5,0 -0.9922,-0.032 -1.2305,-0.25 -0.2227,-0.2 -0.3203,-0.481 -0.3203,-0.821 0,-0.527 0.3086,-1.629 0.7383,-3.039 l 5.4218,-17.718 0.0977,0 c 1.3516,4.289 5.4414,16.886 6.2031,19.449 0.168,0.519 0.2774,1.09 0.2774,1.449 0,0.32 -0.1094,0.641 -0.418,0.75 -0.3398,0.148 -0.832,0.18 -1.25,0.18 -0.2813,0 -0.5195,0.05 -0.5195,0.332 0,0.297 0.289,0.386 0.8789,0.386 1.5586,0 2.8789,-0.117 3.2695,-0.117 0.5586,0 2.0391,0.117 2.9883,0.117 0.3906,0 0.6523,-0.089 0.6523,-0.347 0,-0.27 -0.1992,-0.371 -0.5195,-0.371 -0.3125,0 -0.9492,0 -1.5,-0.45 -0.4219,-0.339 -0.9023,-1.011 -1.75,-3.539 -1.2422,-3.66 -2.0703,-5.769 -3.7813,-10.589 -2,-5.704 -3.4882,-9.954 -4.1914,-11.903 -0.789,-2.277 -0.9882,-2.89 -1.4101,-2.89 -0.418,0 -0.6367,0.543 -1.2188,2.382"
         style="fill:#000000;fill-opacity:1;fill-rule:nonzero;stroke:none"
         id="path3443"
         inkscape:connector-curvature="0" /><path
         d="m 106.516,536.426 c 0,5.922 0,7.012 -0.082,8.262 -0.079,1.32 -0.34,1.949 -1.461,2.23 -0.289,0.066 -0.86,0.117 -1.348,0.117 -0.383,0 -0.57,0.07 -0.57,0.352 0,0.258 0.238,0.359 0.758,0.359 0.91,0 1.902,-0.058 2.781,-0.058 0.871,-0.043 1.672,-0.071 2.148,-0.071 1.094,0 7.91,0 8.571,0.028 0.652,0.101 1.179,0.16 1.441,0.261 0.191,0.02 0.379,0.141 0.57,0.141 0.16,0 0.192,-0.141 0.192,-0.359 0,-0.262 -0.161,-0.731 -0.262,-2.52 -0.039,-0.402 -0.121,-2.113 -0.18,-2.582 0,-0.199 -0.101,-0.43 -0.32,-0.43 -0.262,0 -0.34,0.192 -0.34,0.539 0,0.262 -0.019,0.93 -0.191,1.422 -0.25,0.707 -0.578,1.141 -2.289,1.399 -0.579,0.07 -4.192,0.14 -4.86,0.14 -0.172,0 -0.25,-0.109 -0.25,-0.398 l 0,-9.871 c 0,-0.282 0.039,-0.422 0.25,-0.422 0.739,0 4.68,0 5.481,0.07 0.828,0.07 1.328,0.192 1.629,0.59 0.23,0.301 0.379,0.492 0.57,0.492 0.121,0 0.219,-0.062 0.219,-0.312 0,-0.219 -0.137,-0.84 -0.258,-2.821 -0.039,-0.816 -0.152,-2.367 -0.152,-2.636 0,-0.321 0,-0.743 -0.309,-0.743 -0.238,0 -0.289,0.161 -0.289,0.36 -0.039,0.383 -0.039,0.89 -0.141,1.39 -0.179,0.801 -0.679,1.372 -1.929,1.532 -0.653,0.097 -4.059,0.109 -4.872,0.109 -0.16,0 -0.199,-0.148 -0.199,-0.379 l 0,-3.082 c 0,-1.347 -0.039,-4.937 0,-6.07 0.078,-2.699 0.61,-3.277 4.11,-3.277 0.89,0 2.332,0 3.211,0.457 0.929,0.472 1.308,1.293 1.55,2.902 0.047,0.418 0.129,0.59 0.391,0.59 0.277,0 0.277,-0.34 0.277,-0.719 0,-0.883 -0.277,-3.531 -0.461,-4.32 -0.238,-1.024 -0.547,-1.024 -1.828,-1.024 -2.59,0 -4.469,0.082 -5.949,0.133 -1.473,0.059 -2.531,0.109 -3.539,0.109 -0.383,0 -1.152,0 -1.992,-0.05 -0.75,0 -1.668,-0.059 -2.34,-0.059 -0.441,0 -0.699,0.109 -0.699,0.379 0,0.191 0.16,0.289 0.558,0.289 0.52,0 0.93,0.09 1.231,0.18 0.672,0.16 0.859,1.011 0.992,2.14 0.18,1.653 0.18,4.731 0.18,8.34"
         style="fill:#000000;fill-opacity:1;fill-rule:nonzero;stroke:none"
         id="path3445"
         inkscape:connector-curvature="0" /><path
         d="m 298.16,566.348 c 0,0 30.301,4.371 37.649,-4.348 0,0 8.269,9.168 36.949,3.438 l 0.269,-59.481 c 0,0 2.493,-4.82 -13.117,-3.918 0,0 -18.14,1.379 -22.281,-2.762 l -5.949,0.7 c 0,0 -16.289,3.691 -29.86,2.3 l -3.66,3.903"
         style="fill:#ffffff;fill-opacity:1;fill-rule:nonzero;stroke:none"
         id="path3447"
         inkscape:connector-curvature="0" /><path
         d="m 298.414,568.688 -0.59,-0.02 -8.293,-6.09 0,-67.07 40.91,0 0,2.758 -37.488,0 0,63.113 c 0.899,0.648 5.481,4.027 6.238,4.566 26.25,1.063 33.321,-2.539 34.661,-3.5 l 0,-62.09 3.41,0 0,63.051 -0.239,0.332 c -0.48,0.641 -5.761,6.34 -38.609,4.95"
         style="fill:#000000;fill-opacity:1;fill-rule:nonzero;stroke:none"
         id="path3449"
         inkscape:connector-curvature="0" /><path
         d="m 296.813,567.313 0,-61.629 c -0.032,-0.141 -0.059,-1.852 1.597,-3.282 1.391,-1.148 3.422,-1.757 6.102,-1.757 6.461,0.269 24.199,0.468 29.511,-1.403 l 1.368,2.5 c -7.149,2.551 -29.981,1.723 -30.957,1.672 -1.571,0 -2.801,0.301 -3.493,0.879 -0.718,0.57 -0.718,1.312 -0.718,1.352 l 0,61.668"
         style="fill:#000000;fill-opacity:1;fill-rule:nonzero;stroke:none"
         id="path3451"
         inkscape:connector-curvature="0" /><path
         d="m 284.391,506.855 0,-9.98 c -0.039,0 -0.52,-2.398 1.328,-4.289 1.211,-1.191 3.043,-1.84 5.461,-1.91 l 40.531,0 0,2.769 -40.473,0 c -1.289,0.039 -2.277,0.321 -2.808,0.871 -0.918,0.911 -0.649,2.309 -0.649,2.309 l 0.02,10.23"
         style="fill:#000000;fill-opacity:1;fill-rule:nonzero;stroke:none"
         id="path3453"
         inkscape:connector-curvature="0" /><path
         d="m 286.391,566.504 c -0.911,-0.559 -2,-1.691 -2,-3.828 l 0,-6.024 -8.789,0 -0.2,-0.066 c -0.16,-0.012 -3.871,-0.813 -3.871,-4.941 l 0,-0.321 c 0,-1.058 0.699,-3.058 3.52,-4.191 l 0.34,-0.16 c 0,0 6.652,-0.137 9,-0.207 l 0,-34.371 3.41,0 0,37.058 c 0,0 -10.367,0.223 -11.36,0.25 -1.3,0.633 -1.468,1.5 -1.468,1.77 l 0,0.043 c 0,1.777 0.871,2.257 1.168,2.367 l 11.66,0 0,8.793 c 0,0.808 0.242,1.387 0.703,1.66 0.668,0.457 1.937,0.34 2.34,0.258 l 0.179,-0.02 5.571,-0.019 0,2.758 -5.352,0 0.418,-0.04 c -0.316,0.063 -3.156,0.563 -5.269,-0.769"
         style="fill:#000000;fill-opacity:1;fill-rule:nonzero;stroke:none"
         id="path3455"
         inkscape:connector-curvature="0" /><path
         d="m 275.727,514.703 -0.219,0 -0.199,-0.062 c -0.18,-0.039 -3.879,-0.828 -3.879,-4.918 -0.141,-1.032 0.418,-3.289 3.5,-4.563 l 0.359,-0.137 12.418,-0.21 0.102,2.738 c 0,0 -10.469,0.179 -11.493,0.203 -1.25,0.656 -1.468,1.488 -1.468,1.758 l 0,0.039 c 0,1.801 0.922,2.242 1.211,2.371 l 11.679,0 0,2.781"
         style="fill:#000000;fill-opacity:1;fill-rule:nonzero;stroke:none"
         id="path3457"
         inkscape:connector-curvature="0" /><path
         d="m 334.301,563.461 -0.238,-0.34 0,-63.019 3.41,0 0,62.109 c 1.379,0.91 8.41,4.543 34.64,3.48 0.77,-0.558 5.379,-3.937 6.278,-4.589 l 0,-63.11 -37.469,0 0,-2.762 40.891,0 0,67.102 -8.309,6.078 -0.594,0.043 c -32.847,1.367 -38.109,-4.332 -38.609,-4.992"
         style="fill:#000000;fill-opacity:1;fill-rule:nonzero;stroke:none"
         id="path3459"
         inkscape:connector-curvature="0" /><path
         d="m 371.074,567.063 0,-61.661 c 0,-0.062 0.031,-0.793 -0.699,-1.39 -0.711,-0.532 -1.922,-0.852 -3.539,-0.852 -0.902,0.039 -23.75,0.852 -30.91,-1.648 l 1.367,-2.532 c 5.34,1.86 23.062,1.672 29.43,1.411 2.761,0 4.793,0.609 6.191,1.761 1.66,1.43 1.621,3.141 1.602,3.309 l 0,61.602"
         style="fill:#000000;fill-opacity:1;fill-rule:nonzero;stroke:none"
         id="path3461"
         inkscape:connector-curvature="0" /><path
         d="m 383.539,506.617 0,-10 c 0,-0.25 0.289,-1.672 -0.641,-2.562 -0.539,-0.528 -1.507,-0.848 -2.878,-0.867 l -40.391,0 0,-2.774 40.473,0 c 2.437,0.094 4.277,0.723 5.488,1.934 1.879,1.867 1.39,4.257 1.32,4.527 l 0.02,9.742"
         style="fill:#000000;fill-opacity:1;fill-rule:nonzero;stroke:none"
         id="path3463"
         inkscape:connector-curvature="0" /><path
         d="m 379.684,567.02 0.418,0.043 -5.348,0 0,-2.762 5.539,0 0.191,0.031 c 0.387,0.078 1.668,0.18 2.34,-0.242 0.481,-0.32 0.719,-0.86 0.719,-1.68 l 0,-8.777 11.578,0 c 0.242,-0.07 1.25,-0.473 1.25,-2.242 l 0,-0.11 c 0,-0.371 -0.219,-1.199 -1.469,-1.832 -1,-0.019 -11.359,-0.238 -11.359,-0.238 l 0,-37.09 3.391,0 0,34.391 c 2.347,0.058 9,0.199 9,0.199 l 0.339,0.16 c 2.801,1.141 3.52,3.078 3.52,4.309 0,0.121 0,0.23 -0.031,0.363 l 0,0.02 c 0,3.957 -3.688,4.75 -3.848,4.789 l -0.199,0.019 -8.781,0 0,6.039 c 0,2.121 -1.071,3.281 -2,3.852 -2.11,1.34 -4.95,0.82 -5.25,0.758"
         style="fill:#000000;fill-opacity:1;fill-rule:nonzero;stroke:none"
         id="path3465"
         inkscape:connector-curvature="0" /><path
         d="m 395.621,514.441 -12.07,0 0,-2.757 11.687,0 c 0.223,-0.082 1.211,-0.481 1.211,-2.25 0,0 0.02,-0.051 0.02,-0.09 0,-0.36 -0.207,-1.223 -1.449,-1.832 -1.04,-0.047 -11.481,-0.219 -11.481,-0.219 l 0.063,-2.762 12.437,0.211 0.352,0.18 c 3.078,1.262 3.66,3.519 3.5,4.672 0,3.98 -3.692,4.75 -3.871,4.82 l -0.2,0.027"
         style="fill:#000000;fill-opacity:1;fill-rule:nonzero;stroke:none"
         id="path3467"
         inkscape:connector-curvature="0" /><path
         d="m 313.418,547.613 -4.191,-0.152 c -1.649,-0.07 -2.348,-0.27 -2.75,-1.148 -0.278,-0.571 -0.43,-1.051 -0.489,-1.372 -0.058,-0.32 -0.129,-0.449 -0.3,-0.449 -0.2,0 -0.25,0.168 -0.25,0.61 0,0.64 0.531,4.191 0.589,4.511 0.082,0.508 0.172,0.739 0.332,0.739 0.219,0 0.52,-0.399 1.219,-0.461 0.82,-0.118 1.891,-0.207 2.801,-0.207 l 11.18,0 c 0.898,0 1.507,0.129 1.961,0.207 0.418,0.121 0.628,0.203 0.75,0.203 0.179,0 0.207,-0.242 0.207,-0.832 0,-0.84 -0.071,-3.52 -0.071,-4.539 -0.019,-0.403 -0.09,-0.629 -0.258,-0.629 -0.21,0 -0.281,0.179 -0.3,0.769 l -0.039,0.45 c -0.063,1 -0.813,2.109 -3.313,2.167 l -3.539,0.133 0,-16.062 c 0,-3.617 0,-6.719 0.109,-8.41 0.102,-1.078 0.262,-1.95 1.102,-2.09 0.391,-0.098 1.031,-0.168 1.449,-0.168 0.289,0 0.442,-0.121 0.442,-0.32 0,-0.27 -0.219,-0.403 -0.52,-0.403 -1.859,0 -3.633,0.133 -4.449,0.133 -0.621,0 -2.41,-0.133 -3.543,-0.133 -0.348,0 -0.559,0.133 -0.559,0.403 0,0.199 0.102,0.32 0.461,0.32 0.418,0 0.758,0.07 0.989,0.168 0.582,0.14 0.761,1.012 0.839,2.16 0.141,1.621 0.141,4.723 0.141,8.34"
         style="fill:#000000;fill-opacity:1;fill-rule:nonzero;stroke:none"
         id="path3469"
         inkscape:connector-curvature="0" /><path
         d="m 338.926,532.344 c 0.179,0 0.219,0.101 0.179,0.219 l -3.281,9.8 c -0.027,0.16 -0.078,0.34 -0.199,0.34 -0.09,0 -0.148,-0.18 -0.219,-0.34 l -3.332,-9.75 c -0.039,-0.168 0,-0.269 0.141,-0.269 l 6.711,0 z m -7.442,-1.981 c -0.187,0 -0.269,-0.09 -0.316,-0.34 l -2,-5.64 c -0.352,-1 -0.531,-1.957 -0.531,-2.43 0,-0.711 0.32,-1.211 1.468,-1.211 l 0.54,0 c 0.441,0 0.543,-0.09 0.543,-0.316 0,-0.321 -0.223,-0.422 -0.622,-0.422 -1.16,0 -2.742,0.148 -3.859,0.148 -0.391,0 -2.402,-0.148 -4.312,-0.148 -0.457,0 -0.688,0.101 -0.688,0.422 0,0.226 0.129,0.316 0.438,0.316 0.332,0 0.851,0.043 1.152,0.082 1.66,0.231 2.359,1.571 3.098,3.559 l 9.14,24.871 c 0.43,1.129 0.66,1.57 1.02,1.57 0.32,0 0.55,-0.359 0.922,-1.269 0.847,-2.172 6.699,-18.313 9.039,-24.34 1.371,-3.551 2.441,-4.129 3.199,-4.313 0.562,-0.117 1.082,-0.16 1.531,-0.16 0.309,0 0.5,-0.066 0.5,-0.316 0,-0.321 -0.34,-0.422 -1.691,-0.422 -1.328,0 -3.989,0 -6.918,0.101 -0.66,0.047 -1.09,0.047 -1.09,0.321 0,0.226 0.16,0.316 0.539,0.359 0.238,0.078 0.5,0.438 0.309,0.891 l -2.93,8.398 c -0.047,0.199 -0.16,0.289 -0.34,0.289 l -8.141,0"
         style="fill:#000000;fill-opacity:1;fill-rule:nonzero;stroke:none"
         id="path3471"
         inkscape:connector-curvature="0" /><path
         d="m 335.629,542.535 c -0.02,-0.031 -0.059,-0.09 -0.059,-0.23 l -3.379,-9.742 0,-0.098 6.739,0 c 0.039,0 0.039,0.027 0.039,0.027 l 0,0.031 -3.297,9.84 c 0,0.032 -0.024,0.141 -0.043,0.172 m 3.301,-10.351 -6.719,0 c -0.109,0 -0.191,0.089 -0.231,0.129 -0.05,0.05 -0.101,0.152 -0.05,0.351 l 3.359,9.731 c 0.07,0.199 0.141,0.449 0.34,0.449 0.242,0 0.269,-0.25 0.32,-0.399 l 0,-0.062 3.301,-9.77 c 0.012,-0.109 0.012,-0.23 -0.039,-0.289 -0.039,-0.051 -0.121,-0.14 -0.281,-0.14 m -7.45,-1.68 8.149,0 c 0.211,0 0.391,-0.121 0.473,-0.379 l 2.929,-8.402 c 0.09,-0.239 0.09,-0.481 0,-0.707 -0.09,-0.172 -0.25,-0.34 -0.402,-0.364 -0.418,-0.047 -0.418,-0.129 -0.418,-0.226 0,-0.141 0.379,-0.16 0.801,-0.184 l 0.148,-0.008 c 2.899,-0.07 5.59,-0.07 6.899,-0.07 1.293,0 1.519,0.07 1.519,0.262 0,0.117 -0.008,0.179 -0.328,0.179 -0.391,0 -0.961,0.008 -1.551,0.161 -0.898,0.218 -1.969,0.91 -3.32,4.398 -1.309,3.371 -3.75,10.031 -5.731,15.371 -1.558,4.309 -2.937,8.008 -3.328,8.981 -0.34,0.847 -0.519,1.168 -0.761,1.168 -0.297,0 -0.508,-0.442 -0.911,-1.489 l -9.136,-24.851 c -0.692,-1.852 -1.391,-3.418 -3.223,-3.68 -0.25,-0.012 -0.789,-0.059 -1.148,-0.059 -0.301,0 -0.301,-0.082 -0.301,-0.179 0,-0.184 0.039,-0.262 0.558,-0.262 1.313,0 2.622,0.07 3.5,0.078 0.391,0 0.672,0.043 0.801,0.043 0.571,0 1.231,-0.043 1.922,-0.051 0.68,-0.031 1.348,-0.07 1.938,-0.07 0.472,0 0.492,0.078 0.492,0.262 0,0.117 0,0.179 -0.41,0.179 l -0.532,0 c -1.089,0 -1.609,0.45 -1.609,1.348 0,0.473 0.172,1.43 0.551,2.473 l 1.98,5.648 c 0.071,0.27 0.168,0.43 0.449,0.43 m 18.579,-10.621 c -1.309,0 -4,0 -6.918,0.07 l -0.129,0.012 c -0.653,0.039 -1.082,0.058 -1.082,0.461 0,0.398 0.34,0.457 0.629,0.476 0.07,0.024 0.16,0.114 0.203,0.243 0.039,0.097 0.09,0.25 0,0.5 l -2.922,8.378 c -0.051,0.161 -0.11,0.192 -0.211,0.192 l -8.149,0 c -0.089,0 -0.121,0 -0.199,-0.211 l -1.972,-5.66 c -0.368,-1.02 -0.528,-1.949 -0.528,-2.391 0,-0.488 0.141,-1.07 1.328,-1.07 l 0.532,0 c 0.371,0 0.679,-0.039 0.679,-0.457 0,-0.543 -0.519,-0.543 -0.761,-0.543 -0.59,0 -1.278,0.031 -1.969,0.051 -0.66,0.031 -1.32,0.07 -1.891,0.07 -0.129,0 -0.41,-0.012 -0.801,-0.039 -0.878,-0.031 -2.187,-0.082 -3.5,-0.082 -0.296,0 -0.839,0 -0.839,0.543 0,0.297 0.203,0.457 0.582,0.457 0.339,0 0.847,0.019 1.109,0.062 1.531,0.231 2.211,1.328 3.012,3.481 l 9.148,24.847 c 0.461,1.211 0.68,1.672 1.149,1.672 0.402,0 0.691,-0.402 1.043,-1.351 0.378,-0.949 1.726,-4.668 3.339,-8.961 1.957,-5.348 4.411,-12 5.7,-15.379 1.308,-3.34 2.32,-4.012 3.121,-4.238 0.566,-0.114 1.136,-0.133 1.488,-0.133 0.199,0 0.621,0 0.621,-0.457 0,-0.492 -0.562,-0.543 -1.812,-0.543"
         style="fill:#ffffff;fill-opacity:1;fill-rule:nonzero;stroke:none"
         id="path3473"
         inkscape:connector-curvature="0" /><path
         d="m 351.328,520.648 c -0.582,0.27 -0.699,0.45 -0.699,1.332 0,2.161 0.141,4.508 0.211,5.118 0.027,0.601 0.148,1.043 0.43,1.043 0.328,0 0.378,-0.364 0.378,-0.672 0,-0.508 0.141,-1.352 0.309,-2 0.832,-2.879 3,-3.961 5.27,-3.961 3.332,0 4.941,2.39 4.941,4.461 0,1.929 -0.551,3.719 -3.609,6.281 l -1.711,1.41 c -4.032,3.379 -5.418,6.11 -5.418,9.289 0,4.301 3.379,7.399 8.5,7.399 2.386,0 3.957,-0.399 4.91,-0.668 0.34,-0.071 0.488,-0.16 0.488,-0.45 0,-0.511 -0.129,-1.66 -0.129,-4.703 0,-0.879 -0.109,-1.187 -0.402,-1.187 -0.238,0 -0.379,0.238 -0.379,0.711 0,0.359 -0.16,1.547 -0.949,2.59 -0.563,0.75 -1.61,1.918 -4,1.918 -2.731,0 -4.41,-1.68 -4.41,-4.032 0,-1.808 0.859,-3.179 3.918,-5.668 l 1.011,-0.781 c 4.469,-3.609 6.059,-6.308 6.059,-10.019 0,-2.289 -0.809,-5 -3.457,-6.821 -1.844,-1.238 -3.922,-1.629 -5.852,-1.629 -2.148,0 -3.832,0.282 -5.41,1.039"
         style="fill:#000000;fill-opacity:1;fill-rule:nonzero;stroke:none"
         id="path3475"
         inkscape:connector-curvature="0" /><path
         d="m 211.664,563.359 c 0,0 -21.789,7.571 -30.078,3.2 l 0.687,-61.079 c 0,0 -0.207,-4.351 12.422,-3.652 0,0 12.621,1.59 15.578,-1.848 l 4.153,0.239 c 0,0 5.308,2.75 24.34,1.82 0,0 5.05,-2.762 2.98,19.969 l 0.238,44.551 c 0,0 -21.578,2.3 -30.32,-3.2"
         style="fill:#ffffff;fill-opacity:1;fill-rule:nonzero;stroke:none"
         id="path3477"
         inkscape:connector-curvature="0" /><path
         d="m 208.48,495.508 c 0,1.91 1.559,3.48 3.481,3.48 1.922,0 3.48,-1.57 3.48,-3.48 0,-1.93 -1.558,-3.481 -3.48,-3.481 -1.922,0 -3.481,1.551 -3.481,3.481 m -2.75,0 c 0,-3.442 2.801,-6.238 6.231,-6.238 3.422,0 6.219,2.796 6.219,6.238 0,3.441 -2.797,6.219 -6.219,6.219 -3.43,0 -6.231,-2.778 -6.231,-6.219"
         style="fill:#000000;fill-opacity:1;fill-rule:nonzero;stroke:none"
         id="path3479"
         inkscape:connector-curvature="0" /><path
         d="m 182.102,568.688 -0.524,-0.02 -6.648,-6.09 0,-67.07 32.922,0 0,2.758 -30.172,0 0,63.113 c 0.718,0.637 4.441,4.027 5.039,4.566 21.09,1.063 26.769,-2.539 27.871,-3.5 l 0,-62.09 2.738,0 0,63.051 -0.187,0.332 c -0.403,0.641 -4.641,6.34 -31.039,4.95"
         style="fill:#000000;fill-opacity:1;fill-rule:nonzero;stroke:none"
         id="path3481"
         inkscape:connector-curvature="0" /><path
         d="m 180.785,567.313 0,-61.661 c 0,-0.109 -0.027,-1.82 1.313,-3.25 1.117,-1.148 2.738,-1.757 4.898,-1.757 5.199,0.269 19.442,0.468 23.731,-1.403 l 1.097,2.5 c -5.738,2.551 -24.129,1.723 -24.886,1.672 -1.282,0 -2.282,0.301 -2.813,0.879 -0.57,0.57 -0.57,1.289 -0.57,1.352 l 0,61.668"
         style="fill:#000000;fill-opacity:1;fill-rule:nonzero;stroke:none"
         id="path3483"
         inkscape:connector-curvature="0" /><path
         d="m 170.789,506.855 0,-9.98 c -0.019,-0.02 -0.387,-2.398 1.102,-4.289 0.949,-1.191 2.441,-1.84 4.371,-1.91 l 32.597,0 0,2.769 -32.57,0 c -1.019,0.039 -1.816,0.321 -2.238,0.871 -0.762,0.887 -0.512,2.309 -0.512,2.309 l 0.012,10.23"
         style="fill:#000000;fill-opacity:1;fill-rule:nonzero;stroke:none"
         id="path3485"
         inkscape:connector-curvature="0" /><path
         d="m 172.422,566.504 c -0.762,-0.559 -1.629,-1.691 -1.629,-3.828 l 0,-6.024 -7.051,0 -0.14,-0.066 c -0.161,-0.012 -3.122,-0.813 -3.122,-4.941 -0.019,-0.082 -0.039,-0.211 -0.039,-0.321 0,-1.07 0.582,-3.058 2.86,-4.191 l 0.262,-0.16 c 0,0 5.359,-0.137 7.23,-0.207 l 0,-34.371 2.758,0 0,37.058 c 0,0 -8.34,0.223 -9.149,0.25 -1.039,0.633 -1.179,1.5 -1.179,1.731 l 0,0.082 c 0,1.777 0.718,2.257 0.949,2.367 l 9.379,0 0,8.793 c 0,0.808 0.203,1.387 0.562,1.66 0.559,0.457 1.571,0.34 1.867,0.258 l 0.161,-0.039 4.472,-0.02 0,2.778 -4.32,0 0.348,-0.04 c -0.239,0.063 -2.528,0.563 -4.219,-0.769"
         style="fill:#000000;fill-opacity:1;fill-rule:nonzero;stroke:none"
         id="path3487"
         inkscape:connector-curvature="0" /><path
         d="m 163.816,514.684 -0.16,0 -0.16,-0.039 c -0.129,-0.043 -3.117,-0.832 -3.117,-4.922 -0.09,-1.032 0.34,-3.309 2.82,-4.559 l 0.278,-0.141 10,-0.25 0.062,2.782 c 0,0 -8.402,0.179 -9.223,0.199 -1.019,0.66 -1.179,1.488 -1.179,1.738 l 0,0.063 c 0,1.769 0.722,2.238 0.972,2.367 l 9.387,0 0,2.762"
         style="fill:#000000;fill-opacity:1;fill-rule:nonzero;stroke:none"
         id="path3489"
         inkscape:connector-curvature="0" /><path
         d="m 210.945,563.461 -0.218,-0.34 0,-63.019 2.769,0 0,62.089 c 1.109,0.93 6.75,4.563 27.852,3.5 0.64,-0.558 4.34,-3.937 5.039,-4.589 l 0,-63.11 -30.129,0 0,-2.762 32.89,0 0,67.102 -6.66,6.078 -0.5,0.024 c -26.422,1.386 -30.66,-4.313 -31.043,-4.973"
         style="fill:#000000;fill-opacity:1;fill-rule:nonzero;stroke:none"
         id="path3491"
         inkscape:connector-curvature="0" /><path
         d="m 240.535,567.063 0,-61.68 c 0,-0.043 0,-0.774 -0.558,-1.371 -0.571,-0.551 -1.551,-0.852 -2.879,-0.852 -0.731,0.039 -19.09,0.852 -24.84,-1.648 l 1.09,-2.551 c 4.289,1.898 18.55,1.691 23.668,1.43 2.222,0 3.871,0.609 4.992,1.761 1.328,1.43 1.308,3.141 1.289,3.309 l 0,61.602"
         style="fill:#000000;fill-opacity:1;fill-rule:nonzero;stroke:none"
         id="path3493"
         inkscape:connector-curvature="0" /><path
         d="m 250.504,506.617 0,-10 c 0.039,-0.25 0.289,-1.672 -0.449,-2.562 -0.461,-0.528 -1.231,-0.848 -2.352,-0.867 l -32.48,0 0,-2.774 32.539,0 c 1.992,0.094 3.461,0.723 4.429,1.934 1.512,1.867 1.114,4.257 1.063,4.527 l 0.039,9.742"
         style="fill:#000000;fill-opacity:1;fill-rule:nonzero;stroke:none"
         id="path3495"
         inkscape:connector-curvature="0" /><path
         d="m 247.426,567.02 0.34,0.043 -4.309,0 0,-2.762 4.488,0 0.153,0.031 c 0.328,0.078 1.34,0.18 1.879,-0.242 0.371,-0.32 0.531,-0.86 0.531,-1.68 l 0,-8.777 9.359,0 c 0.18,-0.07 0.988,-0.492 0.988,-2.242 l 0.032,-0.11 c 0,-0.359 -0.199,-1.199 -1.199,-1.832 -0.801,-0.019 -9.18,-0.258 -9.18,-0.258 l 0,-37.07 2.777,0 0,34.391 c 1.891,0.058 7.242,0.199 7.242,0.199 l 0.282,0.141 c 2.238,1.16 2.839,3.097 2.839,4.328 0,0.121 -0.019,0.23 -0.043,0.363 0,3.977 -2.988,4.77 -3.097,4.809 l -0.16,0.019 -7.063,0 0,6.039 c 0,2.121 -0.887,3.281 -1.597,3.852 -1.731,1.34 -4,0.82 -4.262,0.758"
         style="fill:#000000;fill-opacity:1;fill-rule:nonzero;stroke:none"
         id="path3497"
         inkscape:connector-curvature="0" /><path
         d="m 260.27,514.441 -9.719,0 0,-2.757 9.379,0 c 0.187,-0.082 1.008,-0.481 1.008,-2.25 l 0,-0.11 c 0,-0.34 -0.18,-1.203 -1.168,-1.812 -0.809,-0.047 -9.243,-0.219 -9.243,-0.219 l 0.063,-2.762 10,0.211 0.301,0.18 c 2.457,1.262 2.91,3.519 2.797,4.672 0,3.98 -2.989,4.75 -3.098,4.789 l -0.16,0.058"
         style="fill:#000000;fill-opacity:1;fill-rule:nonzero;stroke:none"
         id="path3499"
         inkscape:connector-curvature="0" /><path
         d="m 193.09,535.781 c 0,-0.461 0.082,-0.629 0.293,-0.75 0.637,-0.301 1.566,-0.422 2.347,-0.422 1.231,0 1.629,0.153 2.18,0.711 0.922,0.942 1.813,2.879 1.813,6.379 0,6.024 -2.891,7.75 -4.711,7.75 -0.75,0 -1.313,-0.019 -1.629,-0.148 -0.211,-0.09 -0.293,-0.27 -0.293,-0.602 l 0,-12.918 z m -3.641,3.36 c 0,6.449 0,7.652 -0.058,9.019 -0.051,1.43 -0.301,2.11 -1.309,2.422 -0.262,0.07 -0.781,0.109 -1.211,0.109 -0.34,0 -0.539,0.09 -0.539,0.391 0,0.309 0.231,0.391 0.68,0.391 1.648,0 3.609,-0.153 4.25,-0.153 1.027,0 3.379,0.153 4.34,0.153 1.937,0 3.988,-0.25 5.668,-1.84 0.882,-0.793 2.089,-2.981 2.089,-5.801 0,-3.141 -0.937,-6.039 -4.058,-9.5 2.75,-4.769 4.851,-8.562 6.691,-11.191 1.699,-2.469 2.969,-2.75 3.449,-2.891 0.34,-0.09 0.61,-0.129 0.829,-0.129 0.281,0 0.382,-0.121 0.382,-0.34 0,-0.308 -0.203,-0.41 -0.582,-0.41 l -2.918,0 c -1.73,0 -2.511,0.199 -3.293,0.789 -1.328,1 -2.507,2.981 -4.207,6.262 -1.261,2.308 -2.672,5.238 -3.07,5.848 -0.16,0.25 -0.34,0.3 -0.551,0.3 l -2.679,0.09 c -0.172,0 -0.262,-0.09 -0.262,-0.34 l 0,-0.609 c 0,-3.93 0,-7.289 0.16,-9.078 0.102,-1.231 0.289,-2.172 1.199,-2.332 0.481,-0.071 1.153,-0.18 1.5,-0.18 0.262,0 0.391,-0.121 0.391,-0.34 0,-0.289 -0.207,-0.41 -0.61,-0.41 -1.808,0 -4.078,0.121 -4.55,0.121 -0.559,0 -2.52,-0.121 -3.75,-0.121 -0.418,0 -0.617,0.121 -0.617,0.41 0,0.219 0.128,0.34 0.488,0.34 0.461,0 0.84,0.109 1.101,0.18 0.629,0.16 0.789,1.101 0.938,2.332 0.109,1.789 0.109,5.148 0.109,9.058 l 0,7.45"
         style="fill:#000000;fill-opacity:1;fill-rule:nonzero;stroke:none"
         id="path3501"
         inkscape:connector-curvature="0" /><path
         d="m 223.031,539.066 c 0,6.481 0,7.661 -0.078,9.039 -0.07,1.442 -0.402,2.161 -1.101,2.383 -0.36,0.141 -0.77,0.16 -1.122,0.16 -0.328,0 -0.519,0.098 -0.519,0.43 0,0.25 0.242,0.34 0.769,0.34 1.204,0 3.223,-0.109 4.161,-0.109 0.793,0 2.679,0.109 3.89,0.109 0.422,0 0.672,-0.09 0.672,-0.34 0,-0.332 -0.191,-0.43 -0.512,-0.43 -0.32,0 -0.57,-0.019 -0.968,-0.113 -0.86,-0.25 -1.102,-0.937 -1.16,-2.43 -0.083,-1.378 -0.083,-2.558 -0.083,-9.039 l 0,-7.507 c 0,-4.141 0,-7.512 0.141,-9.34 0.082,-1.16 0.32,-1.934 1.25,-2.102 0.473,-0.09 1.152,-0.172 1.652,-0.172 0.368,0 0.508,-0.117 0.508,-0.328 0,-0.308 -0.25,-0.422 -0.609,-0.422 -2.102,0 -4.109,0.114 -4.988,0.114 -0.731,0 -2.75,-0.114 -4.032,-0.114 -0.422,0 -0.648,0.114 -0.648,0.422 0,0.211 0.148,0.328 0.508,0.328 0.5,0 0.879,0.082 1.148,0.172 0.641,0.168 0.852,0.899 0.942,2.129 0.179,1.801 0.179,5.172 0.179,9.313"
         style="fill:#000000;fill-opacity:1;fill-rule:nonzero;stroke:none"
         id="path3503"
         inkscape:connector-curvature="0" /><path
         d="m 332.234,495.508 c 0,1.91 1.582,3.48 3.493,3.48 1.91,0 3.488,-1.57 3.488,-3.48 0,-1.93 -1.578,-3.481 -3.488,-3.481 -1.911,0 -3.493,1.551 -3.493,3.481 m -2.75,0 c 0,-3.442 2.801,-6.238 6.243,-6.238 3.437,0 6.25,2.796 6.25,6.238 0,3.441 -2.813,6.219 -6.25,6.219 -3.442,0 -6.243,-2.778 -6.243,-6.219"
         style="fill:#000000;fill-opacity:1;fill-rule:nonzero;stroke:none"
         id="path3505"
         inkscape:connector-curvature="0" /><path
         d="m 311.172,332.41 c 0,-48.707 -39.481,-88.18 -88.199,-88.18 -48.711,0 -88.211,39.473 -88.211,88.18 0,48.711 39.5,88.211 88.211,88.211 48.718,0 88.199,-39.5 88.199,-88.211"
         style="fill:#ffffff;fill-opacity:1;fill-rule:nonzero;stroke:none"
         id="path3507"
         inkscape:connector-curvature="0" /><path
         d="m 222.969,419.43 c -47.981,0 -87,-39.051 -87,-87.02 0,-47.972 39.019,-87 87,-87 47.969,0 86.992,39.028 86.992,87 0,47.969 -39.023,87.02 -86.992,87.02 m 0,-176.422 c -49.289,0 -89.391,40.14 -89.391,89.402 0,49.301 40.102,89.399 89.391,89.399 49.301,0 89.39,-40.098 89.39,-89.399 0,-49.262 -40.089,-89.402 -89.39,-89.402"
         style="fill:#231f20;fill-opacity:1;fill-rule:nonzero;stroke:none"
         id="path3509"
         inkscape:connector-curvature="0" /><path
         d="m 270.938,253.066 c 0,-6.628 -5.372,-11.98 -12,-11.98 -6.622,0 -11.981,5.352 -11.981,11.98 0,6.629 5.359,12.008 11.981,12.008 6.628,0 12,-5.379 12,-12.008"
         style="fill:#231f20;fill-opacity:1;fill-rule:nonzero;stroke:none"
         id="path3511"
         inkscape:connector-curvature="0" /><path
         d="m 258.938,263.848 c -5.942,0 -10.793,-4.821 -10.793,-10.782 0,-5.957 4.851,-10.796 10.793,-10.796 5.957,0 10.789,4.839 10.789,10.796 0,5.961 -4.832,10.782 -10.789,10.782 m 0,-23.981 c -7.25,0 -13.204,5.922 -13.204,13.199 0,7.262 5.954,13.192 13.204,13.192 7.269,0 13.187,-5.93 13.187,-13.192 0,-7.277 -5.918,-13.199 -13.187,-13.199"
         style="fill:#231f20;fill-opacity:1;fill-rule:nonzero;stroke:none"
         id="path3513"
         inkscape:connector-curvature="0" /><path
         d="m 317.949,302.258 c 0,-6.641 -5.359,-12 -12,-12 -6.621,0 -11.961,5.359 -11.961,12 0,6.617 5.34,11.988 11.961,11.988 6.641,0 12,-5.371 12,-11.988"
         style="fill:#231f20;fill-opacity:1;fill-rule:nonzero;stroke:none"
         id="path3515"
         inkscape:connector-curvature="0" /><path
         d="m 305.945,313.074 c -5.937,0 -10.789,-4.847 -10.789,-10.816 0,-5.953 4.852,-10.793 10.789,-10.793 5.993,0 10.793,4.84 10.793,10.793 0,5.969 -4.8,10.816 -10.793,10.816 m 0,-24 c -7.277,0 -13.168,5.922 -13.168,13.184 0,7.277 5.891,13.187 13.168,13.187 7.293,0 13.192,-5.91 13.192,-13.187 0,-7.262 -5.899,-13.184 -13.192,-13.184"
         style="fill:#231f20;fill-opacity:1;fill-rule:nonzero;stroke:none"
         id="path3517"
         inkscape:connector-curvature="0" /><path
         d="m 276.996,409.375 c 0,-6.66 -5.367,-12.02 -12,-12.02 -6.617,0 -11.98,5.36 -11.98,12.02 0,6.602 5.363,11.98 11.98,11.98 6.633,0 12,-5.378 12,-11.98"
         style="fill:#231f20;fill-opacity:1;fill-rule:nonzero;stroke:none"
         id="path3519"
         inkscape:connector-curvature="0" /><path
         d="m 264.996,420.168 c -5.961,0 -10.801,-4.871 -10.801,-10.793 0,-5.98 4.84,-10.809 10.801,-10.809 5.957,0 10.809,4.829 10.809,10.809 0,5.922 -4.852,10.793 -10.809,10.793 m 0,-24 c -7.281,0 -13.191,5.918 -13.191,13.207 0,7.25 5.91,13.172 13.191,13.172 7.277,0 13.188,-5.922 13.188,-13.172 0,-7.289 -5.911,-13.207 -13.188,-13.207"
         style="fill:#231f20;fill-opacity:1;fill-rule:nonzero;stroke:none"
         id="path3521"
         inkscape:connector-curvature="0" /><path
         d="m 203.813,413.73 c 0,-6.64 -5.379,-12 -12,-12 -6.61,0 -11.981,5.36 -11.981,12 0,6.61 5.371,11.95 11.981,11.95 6.621,0 12,-5.34 12,-11.95"
         style="fill:#231f20;fill-opacity:1;fill-rule:nonzero;stroke:none"
         id="path3523"
         inkscape:connector-curvature="0" /><path
         d="m 191.813,424.512 c -5.93,0 -10.79,-4.852 -10.79,-10.782 0,-5.968 4.86,-10.789 10.79,-10.789 5.949,0 10.82,4.821 10.82,10.789 0,5.93 -4.871,10.782 -10.82,10.782 m 0,-23.981 c -7.27,0 -13.192,5.903 -13.192,13.199 0,7.262 5.922,13.192 13.192,13.192 7.289,0 13.218,-5.93 13.218,-13.192 0,-7.296 -5.929,-13.199 -13.218,-13.199"
         style="fill:#231f20;fill-opacity:1;fill-rule:nonzero;stroke:none"
         id="path3525"
         inkscape:connector-curvature="0" /><path
         d="m 160.652,379.57 c 0,-6.64 -5.339,-12 -11.949,-12 -6.64,0 -12,5.36 -12,12 0,6.59 5.36,11.981 12,11.981 6.61,0 11.949,-5.391 11.949,-11.981"
         style="fill:#231f20;fill-opacity:1;fill-rule:nonzero;stroke:none"
         id="path3527"
         inkscape:connector-curvature="0" /><path
         d="m 148.707,390.336 c -5.992,0 -10.801,-4.848 -10.801,-10.77 0,-5.961 4.809,-10.808 10.801,-10.808 5.93,0 10.777,4.847 10.777,10.808 0,5.922 -4.847,10.77 -10.777,10.77 m 0,-23.957 c -7.301,0 -13.199,5.898 -13.199,13.187 0,7.25 5.898,13.172 13.199,13.172 7.25,0 13.18,-5.922 13.18,-13.172 0,-7.289 -5.93,-13.187 -13.18,-13.187"
         style="fill:#231f20;fill-opacity:1;fill-rule:nonzero;stroke:none"
         id="path3529"
         inkscape:connector-curvature="0" /><path
         d="m 160.445,287.219 c 0,-6.614 -5.371,-11.992 -11.98,-11.992 -6.641,0 -12,5.378 -12,11.992 0,6.636 5.359,12.008 12,12.008 6.609,0 11.98,-5.372 11.98,-12.008"
         style="fill:#231f20;fill-opacity:1;fill-rule:nonzero;stroke:none"
         id="path3531"
         inkscape:connector-curvature="0" /><path
         d="m 148.461,298.008 c -5.957,0 -10.789,-4.82 -10.789,-10.789 0,-5.942 4.832,-10.781 10.789,-10.781 5.941,0 10.793,4.839 10.793,10.781 0,5.969 -4.852,10.789 -10.793,10.789 m 0,-23.981 c -7.289,0 -13.188,5.942 -13.188,13.192 0,7.289 5.899,13.219 13.188,13.219 7.25,0 13.172,-5.93 13.172,-13.219 0,-7.25 -5.922,-13.192 -13.172,-13.192"
         style="fill:#231f20;fill-opacity:1;fill-rule:nonzero;stroke:none"
         id="path3533"
         inkscape:connector-curvature="0" /><path
         d="m 257.926,251.406 -110.481,127.25 1.789,1.551 110.5,-127.199"
         style="fill:#231f20;fill-opacity:1;fill-rule:nonzero;stroke:none"
         id="path3535"
         inkscape:connector-curvature="0" /><path
         d="m 257.719,251.758 -67.61,162.582 2.231,0.918 67.59,-162.578"
         style="fill:#231f20;fill-opacity:1;fill-rule:nonzero;stroke:none"
         id="path3537"
         inkscape:connector-curvature="0" /><path
         d="m 304.254,301.016 -113.883,112.922 1.703,1.707 113.867,-112.899"
         style="fill:#231f20;fill-opacity:1;fill-rule:nonzero;stroke:none"
         id="path3539"
         inkscape:connector-curvature="0" /><path
         d="m 303.242,301.465 -39.961,109.039 2.25,0.84 40,-109.047"
         style="fill:#231f20;fill-opacity:1;fill-rule:nonzero;stroke:none"
         id="path3541"
         inkscape:connector-curvature="0" /><path
         d="m 148.242,285.547 -1.769,1.648 117.3,124.301 1.758,-1.641"
         style="fill:#231f20;fill-opacity:1;fill-rule:nonzero;stroke:none"
         id="path3543"
         inkscape:connector-curvature="0" /><path
         d="m 258.711,252.02 -111.231,34.429 0.7,2.301 111.25,-34.437"
         style="fill:#231f20;fill-opacity:1;fill-rule:nonzero;stroke:none"
         id="path3545"
         inkscape:connector-curvature="0" /><path
         d="m 149.277,287.336 -2.379,0 0.231,91.629 2.406,-0.039"
         style="fill:#231f20;fill-opacity:1;fill-rule:nonzero;stroke:none"
         id="path3547"
         inkscape:connector-curvature="0" /><path
         d="m 148.988,286.484 -2.269,0.739 43.129,126.98 2.261,-0.73"
         style="fill:#231f20;fill-opacity:1;fill-rule:nonzero;stroke:none"
         id="path3549"
         inkscape:connector-curvature="0" /><path
         d="m 148.645,378.496 -0.622,2.328 116.079,30.781 0.613,-2.308"
         style="fill:#231f20;fill-opacity:1;fill-rule:nonzero;stroke:none"
         id="path3551"
         inkscape:connector-curvature="0" /><path
         d="m 259.551,252.168 -2.41,0.102 6.07,158.218 2.398,-0.09"
         style="fill:#231f20;fill-opacity:1;fill-rule:nonzero;stroke:none"
         id="path3553"
         inkscape:connector-curvature="0" /><path
         d="m 148.18,286.395 -0.192,2.39 156.289,14.051 0.211,-2.391"
         style="fill:#231f20;fill-opacity:1;fill-rule:nonzero;stroke:none"
         id="path3555"
         inkscape:connector-curvature="0" /><path
         d="m 304.094,301.035 -156.762,77.551 1.051,2.148 156.777,-77.531"
         style="fill:#231f20;fill-opacity:1;fill-rule:nonzero;stroke:none"
         id="path3557"
         inkscape:connector-curvature="0" /><path
         d="m 149.055,377.727 c -0.34,0 -0.672,0.16 -0.934,0.449 -0.398,0.519 -0.316,1.258 0.184,1.687 l 42.41,34.66 c 0.508,0.422 1.277,0.34 1.656,-0.179 0.434,-0.5 0.344,-1.258 -0.137,-1.688 l -42.402,-34.64 c -0.238,-0.192 -0.508,-0.289 -0.777,-0.289"
         style="fill:#231f20;fill-opacity:1;fill-rule:nonzero;stroke:none"
         id="path3559"
         inkscape:connector-curvature="0" /><path
         d="m 264.156,408.754 -0.051,0 -72.949,3.883 c -0.652,0.039 -1.16,0.59 -1.16,1.25 0.059,0.66 0.649,1.168 1.301,1.148 l 72.918,-3.898 c 0.68,-0.024 1.18,-0.59 1.14,-1.242 -0.05,-0.661 -0.57,-1.141 -1.199,-1.141"
         style="fill:#231f20;fill-opacity:1;fill-rule:nonzero;stroke:none"
         id="path3561"
         inkscape:connector-curvature="0" /><path
         d="m 258.574,252.219 c -0.289,0 -0.601,0.117 -0.808,0.347 -0.473,0.45 -0.524,1.2 -0.043,1.68 l 46.269,48.699 c 0.473,0.473 1.223,0.5 1.692,0.043 0.492,-0.429 0.519,-1.203 0.058,-1.679 l -46.297,-48.704 c -0.222,-0.257 -0.519,-0.386 -0.871,-0.386"
         style="fill:#231f20;fill-opacity:1;fill-rule:nonzero;stroke:none"
         id="path3563"
         inkscape:connector-curvature="0" /><path
         d="m 517.715,407.969 10.59,0 c 6.492,-31.489 33.101,-45.61 51.82,-45.61 26.602,0 39.641,17.071 39.641,32.008 0,43.442 -99.071,41.274 -99.071,101.543 0,13.828 7.86,56.43 68.391,56.43 14.648,0 35.019,-1.641 50.211,-7.063 l 1.629,-48.019 -10.039,0 c -2.973,27.68 -20.891,44.769 -49.672,44.769 -22,0 -35,-14.109 -35,-28.777 0,-39.621 100.699,-43.133 100.699,-103.68 0,-32 -22.809,-57.531 -67.859,-57.531 -17.391,0 -39.899,3.531 -59.168,8.949"
         style="fill:#231f20;fill-opacity:1;fill-rule:nonzero;stroke:none"
         id="path3565"
         inkscape:connector-curvature="0" /><path
         d="m 719.91,382.703 c 0,-13.008 5.141,-16.816 23.063,-16.816 26.078,0 38.808,12.199 38.808,35.277 0,30.941 -21.699,49.93 -58.34,49.93 l -3.531,0 0,-68.391 z m 0,75.442 13.031,0 c 27.672,0 43.7,11.41 43.7,36.929 0,28.211 -14.918,44.512 -44.528,44.512 l -12.203,0 0,-81.441 z m -56.726,-94.43 c 17.636,0.281 22.539,6.769 22.539,22 l 0,132.961 c 0,15.211 -4.903,21.738 -22.539,21.988 l 0,8.152 c 13.027,-0.55 23.597,-0.839 34.457,-0.839 16.851,0 33.679,0.839 50.492,0.839 28.23,0 62.699,-8.152 62.699,-47.511 0,-21.43 -16.84,-39.071 -45.609,-43.692 l 0,-0.539 c 32.597,-4.621 53.48,-18.449 53.48,-50.199 0,-14.941 -6.242,-29.051 -15.211,-37.449 -11.129,-10.321 -24.679,-13.86 -54.558,-13.86 -18.172,0 -40.692,0.829 -54.793,0.829 -12.207,0 -22.25,-0.301 -30.957,-0.829"
         style="fill:#231f20;fill-opacity:1;fill-rule:nonzero;stroke:none"
         id="path3567"
         inkscape:connector-curvature="0" /><path
         d="m 1028.5,492.09 -7.05,0 c -1.91,28.48 -25.262,48.84 -67.583,48.84 -51.301,0 -73.012,-36.36 -73.012,-77.61 0,-61.34 37.993,-99.879 81.422,-99.879 13.008,0 25.508,4.598 35.278,11.938 l 0,39.359 c 0,13.571 -4.078,17.641 -20.629,17.641 l 0,8.133 c 8.98,-0.282 19.832,-1.071 37.184,-1.071 17.1,0 27.96,0.789 36.92,1.071 l 0,-8.133 c -16,0 -20.37,-8.399 -20.37,-20.359 l 0,-42.321 c -12.75,-6.258 -44.496,-17.66 -82.215,-17.66 -93.898,0 -107.757,72.731 -107.757,102.32 0,43.95 31.199,97.969 115.609,97.969 32.058,0 58.093,-7.047 72.203,-11.398"
         style="fill:#231f20;fill-opacity:1;fill-rule:nonzero;stroke:none"
         id="path3569"
         inkscape:connector-curvature="0" /><path
         d="m 1060.53,463.578 c 5.17,1.11 31.47,8.68 45.86,16.039 l 0,-34.75 0.56,0 c 13.01,27.953 24.67,34.75 36.1,34.75 3.52,0 7.06,-0.558 10.57,-1.629 l 0,-38.55 -7.05,0 c -2.17,6.492 -6.25,11.382 -15.75,11.382 -7.31,0 -16.29,-5.14 -24.43,-15.179 l 0,-59.161 c 0,-8.691 4.88,-12.769 13.32,-12.769 l 2.15,0 0,-8.141 c -8.67,0.258 -22.52,0.828 -30.41,0.828 -8.68,0 -22.5,-0.57 -29.84,-0.828 l 0,8.141 2.19,0 c 8.38,0 13.27,4.078 13.27,12.769 l 0,69.45 c 0,7.359 -1.87,10.59 -8.95,10.59 -1.62,0 -4.6,-0.512 -7.59,-1.622"
         style="fill:#231f20;fill-opacity:1;fill-rule:nonzero;stroke:none"
         id="path3571"
         inkscape:connector-curvature="0" /><path
         d="m 1197.05,540.93 c 10.59,0 18.98,-8.403 18.98,-18.992 0,-10.571 -8.39,-18.969 -18.98,-18.969 -10.6,0 -19.01,8.398 -19.01,18.969 0,10.589 8.41,18.992 19.01,18.992 m -29.87,-177.223 2.18,0 c 8.41,0 13.3,4.082 13.3,12.77 l 0,69.453 c 0,7.359 -1.9,10.59 -8.95,10.59 -1.64,0 -4.62,-0.512 -7.63,-1.622 l 0,8.68 c 6.79,1.11 33.12,8.68 47.52,16.039 l 0,-103.14 c 0,-8.688 4.89,-12.77 13.29,-12.77 l 2.18,0 0,-8.141 c -8.69,0.262 -22.52,0.832 -30.93,0.832 -8.43,0 -22.27,-0.57 -30.96,-0.832"
         style="fill:#231f20;fill-opacity:1;fill-rule:nonzero;stroke:none"
         id="path3573"
         inkscape:connector-curvature="0" /><path
         d="m 1340.06,460.336 c -10.02,7.871 -18.73,11.121 -30.11,11.121 -20.91,0 -33.39,-19.012 -33.39,-45.309 0,-26.613 17.66,-56.722 44.24,-56.722 8.97,0 14.92,2.972 19.26,4.871 l 0,86.039 z m -19.26,90.652 c 11.69,0 37.18,6.52 50.22,12.2 l 0,-184.532 c 0,-5.429 2.17,-7.89 7.08,-7.89 2.96,0 5.11,1.07 8.11,2.722 l 0,-8.152 c -7.88,0 -31.46,-8.938 -41.25,-13.301 -1.91,3.281 -4.07,9.5 -4.9,14.141 -11.1,-7.879 -24.97,-12.488 -38.79,-12.488 -30.41,0 -56.74,24.968 -56.74,57.789 0,37.742 26.88,68.14 62.71,68.14 15.18,0 21.72,-1.371 32.82,-5.711 l 0,61.602 c 0,4.91 -1.87,8.418 -10.86,8.418 -3.78,0 -5.67,-0.27 -8.4,-1.09"
         style="fill:#231f20;fill-opacity:1;fill-rule:nonzero;stroke:none"
         id="path3575"
         inkscape:connector-curvature="0" /><path
         d="m 598.367,256.309 -1.906,0 c -3.141,6.242 -8.891,18.031 -31.602,18.031 -24.351,0 -32.191,-22.449 -32.191,-40.11 0,-28.582 20.312,-38.429 32.812,-38.429 18.84,0 27.481,10.687 33.137,17.758 l 0.844,0 0,-9.098 c -4.191,-3.981 -14.402,-13.723 -33.031,-13.723 -27.262,0 -45.77,17.18 -45.77,41.321 0,23.199 16.207,47.339 44.688,47.339 11.902,0 23.293,-3.718 27.519,-5.058 2.274,-0.711 4.543,-1.57 6,-1.68"
         style="fill:#231f20;fill-opacity:1;fill-rule:nonzero;stroke:none"
         id="path3577"
         inkscape:connector-curvature="0" /><path
         d="m 656.488,274.336 c -16.808,0 -32.679,-10.328 -32.679,-38.18 0,-19.48 12.75,-40.84 33.402,-40.84 22.207,0 32.437,16.34 32.437,38.45 0,19.332 -12.14,40.57 -33.16,40.57 m 0.371,5.059 c 23.871,0 44.801,-19.34 44.801,-44.34 0,-21.149 -16.351,-44.309 -45.172,-44.309 -25.929,0 -44.679,19.578 -44.679,43.359 0,26.782 21.379,45.29 45.05,45.29"
         style="fill:#231f20;fill-opacity:1;fill-rule:nonzero;stroke:none"
         id="path3579"
         inkscape:connector-curvature="0" /><path
         d="m 713.406,195.918 1.934,0 c 6.367,0 7.437,2.641 7.797,15.25 0.48,15.859 0.73,38.66 0.73,52.609 0,8.629 -2.629,10.43 -8.648,10.43 l -3.371,0 0,3.609 c 3.242,-0.117 6.84,-0.359 10.582,-0.359 3.347,0 6.508,0.242 9.488,0.359 l 56.559,-69.527 0.23,0 -0.687,49.231 c -0.262,13.808 -2.071,16.687 -8.551,16.687 l -1.442,0 0,3.609 c 3.731,-0.117 8.539,-0.359 12.969,-0.359 4.344,0 8.652,0.242 12.981,0.359 l 0,-3.609 -1.938,0 c -3.699,0 -7.172,-1.32 -7.57,-12.969 l -2.141,-70.031 -3.621,0 -59.559,73.039 -0.21,0 c 0,-18.609 0.21,-37.109 0.691,-55.726 0.23,-9.84 2.16,-12.602 7.809,-12.602 l 2.41,0 0,-3.609 c -3.989,0.109 -8.801,0.339 -13.2,0.339 -4.57,0 -9.5,-0.23 -13.242,-0.339"
         style="fill:#231f20;fill-opacity:1;fill-rule:nonzero;stroke:none"
         id="path3581"
         inkscape:connector-curvature="0" /><path
         d="m 863.43,255.969 -4.09,0 c -0.133,3.859 -1.113,18.859 -19.203,18.859 -10,0 -16.348,-6.402 -16.348,-14.18 0,-6.972 3.59,-11.902 13.57,-16.453 l 11.039,-5.027 c 8.641,-3.992 17.899,-10.473 17.899,-22.492 0,-15 -9.848,-25.93 -29.899,-25.93 -1.921,0 -12.371,0.121 -21.492,3 l -0.468,19.731 3.589,0 c 0.95,-11.059 10.211,-18.641 20.411,-18.641 10.332,0 19.23,6.242 19.23,16.34 0,10.543 -8.309,14.652 -15.031,17.89 l -13,6.11 c -9.09,4.332 -15.469,10.801 -15.469,20.66 0,12.391 10.57,23.562 26.801,23.562 7.57,0 15.039,-1.82 22.461,-3.261"
         style="fill:#231f20;fill-opacity:1;fill-rule:nonzero;stroke:none"
         id="path3583"
         inkscape:connector-curvature="0" /><path
         d="m 925.613,274.336 c -16.808,0 -32.66,-10.328 -32.66,-38.18 0,-19.48 12.742,-40.84 33.402,-40.84 22.192,0 32.418,16.34 32.418,38.45 0,19.332 -12.128,40.57 -33.16,40.57 m 0.352,5.059 c 23.93,0 44.84,-19.34 44.84,-44.34 0,-21.149 -16.36,-44.309 -45.192,-44.309 -25.937,0 -44.679,19.578 -44.679,43.359 0,26.782 21.371,45.29 45.031,45.29"
         style="fill:#231f20;fill-opacity:1;fill-rule:nonzero;stroke:none"
         id="path3585"
         inkscape:connector-curvature="0" /><path
         d="m 1003.33,236.738 c 2.02,-0.691 5.02,-0.851 8.15,-0.851 10.81,0 19.71,4.941 19.71,17.429 0,5.282 -3.61,19.942 -20.29,19.942 -2.91,0 -5.2,-0.238 -7.57,-0.488 l 0,-36.032 z m -20.658,-40.82 2.148,0 c 5.532,0 7.918,2.039 7.918,9.852 l 0,58.597 c 0,7.813 -2.386,9.84 -7.918,9.84 l -2.148,0 0,3.609 c 4.207,-0.117 9.969,-0.359 15.359,-0.359 8.059,0 13.829,0.359 19.099,0.359 21.27,0 25.09,-16.687 25.09,-22.218 0,-15.739 -11.03,-20.539 -17.01,-22.45 l 16.07,-26.66 c 6.58,-10.808 8.55,-11.531 18.26,-12.148 l 0,-2.5 c -2.28,0 -4.45,-0.141 -6.71,-0.141 -10.61,0 -15.51,1.328 -21.86,11.778 l -14.1,22.929 c -2.77,4.461 -4.3,4.711 -13.54,4.934 l 0,-22.711 c 0,-11.383 2.02,-12.711 6.82,-12.711 l 3.52,0 0,-3.609 c -5.32,0.109 -10.34,0.339 -15.639,0.339 -5.39,0 -11.152,-0.23 -15.359,-0.339"
         style="fill:#231f20;fill-opacity:1;fill-rule:nonzero;stroke:none"
         id="path3587"
         inkscape:connector-curvature="0" /><path
         d="m 1075.72,195.918 2.78,0 c 6.46,0 7.68,1.559 7.68,11.398 l 0,65.454 -13.68,0 c -12.86,0 -14.42,-7.454 -15.16,-16.801 l -4.08,0 0,21.847 c 3.63,-0.117 22.62,-0.359 38.21,-0.359 14.43,0 34.11,0.242 38.18,0.359 l 0,-21.847 -4.07,0 c -0.73,9.347 -2.28,16.801 -15.15,16.801 l -13.67,0 0,-65.454 c 0,-9.839 1.18,-11.398 7.68,-11.398 l 2.77,0 0,-3.609 c -4.58,0.109 -9.72,0.339 -15.74,0.339 -6.01,0 -11.2,-0.23 -15.75,-0.339"
         style="fill:#231f20;fill-opacity:1;fill-rule:nonzero;stroke:none"
         id="path3589"
         inkscape:connector-curvature="0" /><path
         d="m 1136.13,195.918 2.19,0 c 5.49,0 7.9,2.039 7.9,9.852 l 0,58.597 c 0,7.813 -2.41,9.84 -7.9,9.84 l -2.19,0 0,3.609 c 4.21,-0.117 9.99,-0.359 15.38,-0.359 5.28,0 10.32,0.242 15.38,0.359 l 0,-3.609 -2.19,0 c -5.5,0 -7.91,-2.027 -7.91,-9.84 l 0,-58.597 c 0,-7.813 2.41,-9.852 7.91,-9.852 l 2.19,0 0,-3.609 c -5.06,0.109 -10.1,0.339 -15.38,0.339 -5.39,0 -11.17,-0.23 -15.38,-0.339"
         style="fill:#231f20;fill-opacity:1;fill-rule:nonzero;stroke:none"
         id="path3591"
         inkscape:connector-curvature="0" /><path
         d="m 1204.58,274.211 -2.29,0 c -4.52,-0.223 -7.3,-1.801 -7.43,-11.871 -0.09,-12.641 -0.47,-25.352 -0.47,-37.973 0,-10.199 1.68,-14.898 4.94,-19.449 3.72,-5.41 10.05,-9.609 19.92,-9.609 10.68,0 19.71,6.371 22.45,10.339 3.84,5.422 5.77,12.86 5.77,21.379 l 0,12.731 c 0,16.082 -1.43,28.953 -2.4,31.242 -1.34,2.719 -2.66,3.211 -5.66,3.211 l -2.49,0 0,3.609 c 3.34,-0.121 8.15,-0.359 12.58,-0.359 4.35,0 8.53,0.238 12.87,0.359 l 0,-3.609 -1.8,0 c -4.35,0 -7.33,-1.672 -7.33,-13.082 l 0,-30.731 c 0,-12.828 -3.02,-22.73 -9.38,-29.82 -5.04,-5.508 -15.34,-9.84 -25.34,-9.84 -8.76,0 -15.73,2.289 -23.3,7.942 -8.16,5.988 -11.4,15.98 -11.4,28.461 l 0,37.82 c 0,7.699 -3.24,9.25 -7.69,9.25 l -2.16,0 0,3.609 c 4.91,-0.121 10.08,-0.359 15.36,-0.359 5.06,0 10.23,0.238 15.25,0.359"
         style="fill:#231f20;fill-opacity:1;fill-rule:nonzero;stroke:none"
         id="path3593"
         inkscape:connector-curvature="0" /><path
         d="m 1268.71,195.918 2.18,0 c 5.88,0 7.94,3 8.28,17.641 0.36,16.718 1.21,33.507 1.21,50.808 0,8.039 -2.4,9.84 -8.77,9.84 l -2.16,0 0,3.609 c 3.69,-0.117 6.6,-0.359 10.33,-0.359 3.58,0 8.16,0.242 9.59,0.359 l 33.04,-70.5 29.16,70.5 c 3.87,-0.117 7.59,-0.359 11.09,-0.359 3.59,0 7.31,0.242 11.03,0.359 l 0,-3.609 -1.57,0 c -5.5,0 -9.24,-1.32 -9.24,-9.84 0,-6.129 0.48,-36.277 0.75,-54.418 0.09,-11.992 1.4,-14.031 8.37,-14.031 l 2.4,0 0,-3.609 c -3.97,0.109 -9,0.339 -15.35,0.339 -6.26,0 -11.53,-0.23 -15.63,-0.339 l 0,3.609 1.81,0 c 6.73,0 8.04,2.148 8.04,12.711 l 0,60.551 -0.23,0 -32.2,-77.973 -2.64,0 -33.03,71 -0.23,0 0,-49.238 c 0,-13.082 1.09,-17.051 7.69,-17.051 l 1.69,0 0,-3.609 c -3,0.109 -7.36,0.339 -12.74,0.339 -5.29,0 -9.25,-0.23 -12.87,-0.339"
         style="fill:#231f20;fill-opacity:1;fill-rule:nonzero;stroke:none"
         id="path3595"
         inkscape:connector-curvature="0" /></g></g></svg>